<svg xmlns="http://www.w3.org/2000/svg" width="800" height="400" viewBox="0 0 800 400">
  <rect width="800" height="400" fill="#f5f5f5"/>
  <rect width="800" height="60" fill="#1a1a2e"/>
  <text x="24" y="38" font-family="sans-serif" font-size="20" font-weight="600" fill="white">Hiring Dashboard</text>
  <text x="24" y="55" font-family="sans-serif" font-size="11" fill="#a0a0b0">Example app — HrFlow App Store</text>
  <rect x="24" y="80" width="370" height="300" rx="8" fill="white" stroke="#e8e8e8"/>
  <text x="40" y="108" font-family="sans-serif" font-size="14" font-weight="600" fill="#1a1a2e">Job Listings</text>
  <rect x="40" y="120" width="338" height="50" rx="6" fill="#fafafa" stroke="#eee"/>
  <text x="52" y="143" font-family="sans-serif" font-size="13" font-weight="500" fill="#333">Senior Software Engineer</text>
  <text x="52" y="160" font-family="sans-serif" font-size="11" fill="#666">Paris, France</text>
  <rect x="40" y="180" width="338" height="50" rx="6" fill="#fafafa" stroke="#eee"/>
  <text x="52" y="203" font-family="sans-serif" font-size="13" font-weight="500" fill="#333">Product Manager</text>
  <text x="52" y="220" font-family="sans-serif" font-size="11" fill="#666">Remote</text>
  <rect x="406" y="80" width="370" height="300" rx="8" fill="white" stroke="#e8e8e8"/>
  <text x="422" y="108" font-family="sans-serif" font-size="14" font-weight="600" fill="#1a1a2e">Candidate Profiles</text>
  <rect x="422" y="120" width="338" height="50" rx="6" fill="#fafafa" stroke="#eee"/>
  <text x="434" y="143" font-family="sans-serif" font-size="13" font-weight="500" fill="#333">Alice Martin</text>
  <text x="434" y="160" font-family="sans-serif" font-size="11" fill="#666">Full-stack developer, 5 years exp.</text>
  <rect x="422" y="180" width="338" height="50" rx="6" fill="#fafafa" stroke="#eee"/>
  <text x="434" y="203" font-family="sans-serif" font-size="13" font-weight="500" fill="#333">Bob Johnson</text>
  <text x="434" y="220" font-family="sans-serif" font-size="11" fill="#666">Data scientist, ML specialist</text>
</svg>
